<svg width="100" height="100" viewBox="0 0 100 100" fill="none" xmlns="http://www.w3.org/2000/svg">
<circle cx="50" cy="50" r="48.5" stroke="black" stroke-width="1.5"/>
<path d="M41.4062 50C52.8088 50 62.0524 43.2668 62.0524 34.9609C62.0524 26.6551 52.8088 19.9219 41.4062 19.9219M31.6406 50V80.0781H56.9282V80.0777C56.9815 80.078 57.0348 80.0781 57.0882 80.0781C68.4908 80.0781 77.7344 73.3449 77.7344 65.0391C77.7344 56.7332 68.4908 50 57.0882 50C57.0348 50 56.9815 50.0001 56.9282 50.0004L31.6406 50ZM31.6406 50V19.9219H41.4632" stroke="black" stroke-width="1.5"/>
<path d="M37.5 80.0781V50M50.2319 50C61.5379 50 70.7031 43.2668 70.7031 34.9609C70.7031 26.6551 61.5379 19.9219 50.2319 19.9219C50.179 19.9219 50.1261 19.922 50.0732 19.9223V19.9219H37.5V50M50.2319 50C50.179 50 50.1261 49.9999 50.0732 49.9996V50.0004M50.2319 50C50.179 50 50.1261 50.0001 50.0732 50.0004M50.0732 50.0004L37.5 50" stroke="black" stroke-width="1.5"/>
<path d="M31.6406 19.9219L37.5 49.8047L31.6406 80.0781" stroke="black" stroke-width="1.5"/>
</svg>
