<svg width="30" height="30" viewBox="0 0 30 30" fill="none" xmlns="http://www.w3.org/2000/svg">
<path d="M6 17L6 13L16 13L16 8L24 15L16 22L16 17L6 17Z" fill="black"/>
<path d="M6 13L6 12.5C5.86739 12.5 5.74021 12.5527 5.64645 12.6464C5.55268 12.7402 5.5 12.8674 5.5 13L6 13ZM6 17L5.5 17C5.5 17.2761 5.72386 17.5 6 17.5L6 17ZM16 8L16.3293 7.62371C16.1816 7.49452 15.972 7.46361 15.7934 7.54468C15.6147 7.62575 15.5 7.80381 15.5 8L16 8ZM16 13L16 13.5L16.5 13.5L16.5 13L16 13ZM16 22L15.5 22C15.5 22.1962 15.6147 22.3742 15.7934 22.4553C15.972 22.5364 16.1816 22.5055 16.3293 22.3763L16 22ZM24 15L24.3293 15.3763C24.4378 15.2813 24.5 15.1442 24.5 15C24.5 14.8558 24.4378 14.7187 24.3293 14.6237L24 15ZM16 17L16.5 17L16.5 16.5L16 16.5L16 17ZM5.5 13L5.5 17L6.5 17L6.5 13L5.5 13ZM15.5 8L15.5 13L16.5 13L16.5 8L15.5 8ZM16.3293 22.3763L24.3293 15.3763L23.6707 14.6237L15.6707 21.6237L16.3293 22.3763ZM6 17.5L16 17.5L16 16.5L6 16.5L6 17.5ZM24.3293 14.6237L16.3293 7.62371L15.6707 8.37629L23.6707 15.3763L24.3293 14.6237ZM16 12.5L6 12.5L6 13.5L16 13.5L16 12.5ZM15.5 17L15.5 22L16.5 22L16.5 17L15.5 17Z" fill="black"/>
</svg>
