<svg width="256" height="256" viewBox="0 0 256 256" fill="none" xmlns="http://www.w3.org/2000/svg">
<rect width="256" height="256" fill="white"/>
<circle cx="128" cy="128" r="125.5" stroke="black" stroke-width="5"/>
<path d="M106 128C135.191 128 158.854 110.763 158.854 89.5C158.854 68.237 135.191 51 106 51M81 128V205H145.736V204.999C145.873 205 146.009 205 146.146 205C175.336 205 199 187.763 199 166.5C199 145.237 175.336 128 146.146 128C146.009 128 145.873 128 145.736 128.001L81 128ZM81 128V51H106.146" stroke="black" stroke-width="5"/>
<path d="M96 205V128M128.594 128C157.537 128 181 110.763 181 89.5C181 68.237 157.537 51 128.594 51C128.458 51 128.323 51.0004 128.188 51.0011V51H96V128M128.594 128C128.458 128 128.323 128 128.188 127.999V128.001M128.594 128C128.458 128 128.323 128 128.188 128.001M128.188 128.001L96 128" stroke="black" stroke-width="5"/>
<path d="M81 51L96 127.5L81 205" stroke="black" stroke-width="5"/>
</svg>
